<svg xmlns="http://www.w3.org/2000/svg" viewBox="0 0 32 32"><rect width="32" height="32" rx="6" fill="#22384B"></rect><g transform="translate(4,7.85) scale(0.295)" fill="#F4F2EC"><path d="M16.2,55.2c0-9.58-6.61-16.2-16.2-16.2,9.58,0,16.2-6.61,16.2-16.2,0,9.58,6.61,16.2,16.2,16.2-9.58,0-16.2,6.61-16.2,16.2Z"></path><path d="M40.68,32.39c0-9.58-6.61-16.2-16.2-16.2,9.58,0,16.2-6.61,16.2-16.2,0,9.58,6.61,16.2,16.2,16.2-9.58,0-16.2,6.61-16.2,16.2Z"></path><path d="M65.16,55.2c0-9.58-6.61-16.2-16.2-16.2,9.58,0,16.2-6.61,16.2-16.2,0,9.58,6.61,16.2,16.2,16.2-9.58,0-16.2,6.61-16.2,16.2Z"></path></g></svg>